<?xml version="1.0" standalone="no"?>
<!DOCTYPE svg PUBLIC "-//W3C//DTD SVG 20010904//EN"
 "http://www.w3.org/TR/2001/REC-SVG-20010904/DTD/svg10.dtd">
<svg version="1.0" xmlns="http://www.w3.org/2000/svg"
 width="180.000000pt" height="180.000000pt" viewBox="0 0 180.000000 180.000000"
 preserveAspectRatio="xMidYMid meet">
<metadata>
Created by potrace 1.14, written by Peter Selinger 2001-2017
</metadata>
<g transform="translate(0.000000,180.000000) scale(0.100000,-0.100000)"
fill="#000000" stroke="none">
<path d="M0 900 l0 -900 900 0 900 0 0 900 0 900 -900 0 -900 0 0 -900z m1070
391 c0 -6 -5 -13 -10 -16 -10 -6 -50 -78 -50 -90 0 -3 9 -5 20 -5 30 0 24 -20
-9 -26 -26 -5 -31 -13 -50 -78 -23 -76 -27 -116 -12 -116 13 0 45 46 69 103
13 29 27 47 38 47 12 0 14 -5 9 -17 -29 -68 -47 -124 -42 -130 8 -7 37 16 37
30 0 22 54 118 71 128 29 15 59 -6 59 -41 0 -40 13 -38 39 5 11 19 25 35 31
35 13 0 13 -4 -5 -47 -24 -56 -18 -60 21 -15 56 65 81 52 49 -25 -23 -54 -20
-71 6 -47 22 19 22 19 11 -2 -15 -29 -39 -47 -52 -39 -15 9 -12 45 10 93 10
23 15 42 9 42 -9 0 -83 -107 -91 -132 -3 -7 -10 -8 -17 -4 -9 6 -11 21 -7 47
7 47 -7 51 -24 8 -7 -17 -23 -37 -36 -46 -24 -15 -64 -10 -64 9 0 6 -9 3 -20
-7 -24 -21 -50 -13 -50 16 0 21 -1 21 -25 -5 -29 -32 -49 -33 -62 -4 l-10 23
-12 -23 c-15 -29 -49 -29 -60 0 l-8 22 -12 -22 c-14 -25 -49 -29 -58 -6 -8 21
14 92 39 127 15 20 28 28 47 26 14 -1 34 2 44 6 27 11 32 -2 15 -38 -8 -17
-18 -48 -22 -67 l-7 -35 20 25 c11 14 29 52 39 85 17 58 17 60 -1 67 -22 9
-13 28 13 28 13 0 27 14 40 40 30 60 80 103 80 71z m-453 -28 c8 -21 -29 -91
-78 -146 -34 -40 -59 -98 -59 -141 0 -31 24 -2 59 69 34 71 68 98 96 75 8 -7
15 -19 15 -28 0 -22 -46 -79 -70 -87 -19 -6 -29 -45 -12 -45 20 0 71 60 87
103 15 43 32 57 48 41 3 -4 -1 -23 -9 -43 -40 -93 -34 -132 10 -64 29 46 50
139 40 187 -3 20 -2 36 3 36 61 0 31 -179 -42 -250 -29 -28 -37 -31 -50 -20
-8 7 -15 19 -15 26 0 19 -5 18 -34 -11 -30 -30 -52 -32 -68 -5 -12 19 -13 19
-35 -2 -20 -19 -25 -20 -37 -7 -12 11 -13 25 -4 69 11 62 61 191 90 233 22 30
55 36 65 10z m-281 -21 c-5 -16 3 -17 86 -17 66 0 92 -4 96 -13 3 -9 -4 -12
-19 -11 -13 1 -59 1 -102 1 l-77 -2 -16 -41 c-11 -27 -19 -36 -25 -28 -4 7 -3
23 1 35 6 15 5 25 -3 28 -9 5 -8 8 2 12 7 4 23 17 34 30 25 29 30 30 23 6z
m767 -78 c10 -10 -12 -44 -28 -44 -18 0 -18 5 -5 31 11 19 22 24 33 13z m332
-34 c3 -5 1 -10 -5 -10 -6 0 -22 -11 -35 -25 -23 -22 -25 -22 -25 -5 0 10 10
26 22 34 26 19 35 20 43 6z m3 -87 c6 -18 7 -33 2 -33 -5 0 -10 -7 -12 -15 -2
-10 -7 -7 -15 10 -7 16 -7 23 -1 19 7 -5 8 6 4 32 -9 45 5 37 22 -13z m115
-90 l-36 -137 23 -71 c12 -38 30 -82 41 -97 11 -16 15 -28 9 -28 -6 0 -16 -11
-22 -25 -9 -21 -8 -29 8 -47 l19 -23 -22 19 c-18 14 -23 30 -24 65 -1 51 -29
143 -46 148 -13 5 -51 -93 -60 -152 -6 -50 -9 -55 -44 -77 -21 -13 -26 -14
-26 -2 0 8 8 14 17 14 42 0 56 65 18 79 -22 8 -22 8 -3 19 13 6 31 42 50 96
29 85 30 87 13 132 -10 29 -13 55 -8 72 7 26 7 26 20 -15 7 -24 16 -43 20 -43
3 0 16 32 29 71 25 79 49 139 55 139 2 0 -12 -62 -31 -137z m-1129 108 c3 -5
-18 -12 -46 -16 -29 -3 -66 -9 -83 -12 -45 -8 -19 14 30 26 53 12 93 13 99 2z
m951 -122 c-38 -42 -95 -127 -95 -141 0 -16 32 -7 66 18 19 15 46 45 59 68
l25 41 -4 -40 c-9 -72 -116 -150 -154 -112 -14 15 -14 20 2 56 10 22 43 65 74
95 65 66 80 74 27 15z m-905 -44 c11 -13 8 -15 -14 -15 -21 0 -79 -19 -168
-55 -11 -4 -18 -3 -18 4 0 15 137 81 166 81 12 0 27 -7 34 -15z"/>
<path d="M1158 1090 c-24 -36 -26 -64 -6 -68 19 -4 32 30 26 69 l-3 24 -17
-25z"/>
<path d="M821 1047 c-40 -83 -18 -89 24 -6 19 37 22 49 11 49 -8 0 -24 -19
-35 -43z"/>
<path d="M1110 980 c0 -36 13 -38 35 -8 14 21 14 23 -2 30 -30 11 -33 9 -33
-22z"/>
<path d="M560 1208 c-32 -57 -38 -77 -17 -59 21 17 70 111 58 111 -6 0 -24
-24 -41 -52z"/>
<path d="M590 1078 c-21 -35 -25 -48 -12 -48 8 0 52 62 52 73 0 18 -22 4 -40
-25z"/>
</g>
</svg>
