<?xml version="1.0" standalone="no"?>
<!DOCTYPE svg PUBLIC "-//W3C//DTD SVG 20010904//EN"
 "http://www.w3.org/TR/2001/REC-SVG-20010904/DTD/svg10.dtd">
<svg version="1.0" xmlns="http://www.w3.org/2000/svg"
 width="3150.000000pt" height="3150.000000pt" viewBox="0 0 3150.000000 3150.000000"
 preserveAspectRatio="xMidYMid meet">
<metadata>
Created by potrace 1.14, written by Peter Selinger 2001-2017
</metadata>
<g transform="translate(0.000000,3150.000000) scale(0.100000,-0.100000)"
fill="#000000" stroke="none">
<path d="M15921 23868 c-139 -24 -301 -108 -430 -223 -163 -143 -354 -400
-561 -750 -45 -77 -91 -152 -101 -167 -11 -15 -19 -29 -19 -31 0 -2 -19 -37
-41 -78 -23 -41 -98 -184 -166 -319 -69 -135 -128 -248 -132 -252 -3 -4 -67
-10 -141 -13 -74 -4 -160 -8 -190 -10 -30 -2 -120 -6 -200 -10 -182 -8 -231
-12 -237 -19 -8 -7 -8 -141 0 -203 7 -57 34 -119 63 -144 36 -31 104 -38 315
-36 l206 3 -74 -186 c-41 -102 -78 -194 -83 -205 -17 -38 -118 -321 -160 -445
-81 -244 -149 -476 -221 -760 -42 -168 -49 -182 -182 -405 -132 -220 -227
-364 -337 -510 -133 -176 -329 -375 -368 -375 -29 0 -5 146 76 480 42 172 126
465 149 520 3 8 7 17 8 20 29 116 205 520 294 675 176 307 229 395 292 481 35
48 37 53 21 67 -30 27 -150 88 -219 112 -93 33 -207 31 -277 -5 -82 -42 -194
-180 -241 -297 l-16 -41 -77 55 c-169 121 -396 213 -540 218 -135 4 -221 -26
-321 -113 -379 -331 -687 -760 -860 -1197 -133 -334 -202 -664 -203 -970 0
-117 6 -156 35 -219 40 -87 125 -144 307 -207 81 -28 110 -32 196 -33 l101 -1
44 37 c155 129 407 437 671 819 l17 24 -4 -24 c-30 -171 -26 -463 6 -586 40
-152 86 -185 337 -251 52 -13 117 -24 146 -24 183 1 395 179 572 480 60 102
153 289 198 398 l32 79 1 -181 c1 -100 4 -188 6 -196 2 -8 7 -37 11 -65 15
-94 68 -251 98 -290 5 -5 19 -26 31 -45 34 -52 138 -127 205 -146 210 -62 467
57 743 342 251 261 378 478 434 745 17 80 17 160 0 166 -5 2 -34 -39 -62 -90
-74 -130 -79 -139 -162 -262 -216 -322 -452 -570 -599 -625 -52 -20 -125 -18
-150 2 -37 31 -56 119 -56 258 0 73 10 215 18 255 2 11 7 43 10 70 4 28 10 66
13 85 11 81 67 336 104 480 41 156 63 229 146 484 25 77 46 147 48 155 5 24
237 698 335 971 22 63 52 149 66 190 15 41 30 80 35 86 5 6 30 12 56 13 27 0
58 3 69 5 12 3 75 7 140 10 66 4 166 9 224 12 58 3 204 7 324 9 120 3 221 6
223 8 2 2 -1 36 -7 75 -19 136 -71 231 -143 265 -53 25 -268 42 -509 40 -82 0
-148 1 -148 4 0 13 265 580 338 723 194 379 382 668 532 821 108 109 242 197
304 200 29 1 -64 43 -134 59 -65 16 -168 19 -229 8z m-3233 -3213 c26 -14 61
-37 77 -50 l30 -23 -26 -49 c-351 -652 -817 -1389 -1049 -1658 -55 -64 -188
-205 -193 -205 -6 0 0 212 8 280 10 99 15 126 35 226 82 400 256 776 525 1135
186 247 288 344 388 370 57 14 153 2 205 -26z"/>
<path d="M8035 23703 c-233 -42 -435 -200 -686 -538 -80 -108 -223 -332 -309
-485 -29 -52 -57 -100 -62 -107 -7 -8 -25 3 -63 40 -123 120 -325 200 -560
222 -38 4 -81 8 -95 11 -48 8 -388 17 -630 17 -370 0 -955 -18 -1260 -38 -30
-2 -109 -6 -175 -10 -66 -3 -158 -8 -205 -10 -47 -3 -129 -7 -183 -10 l-98 -5
12 22 c7 13 70 128 141 256 70 128 129 238 131 244 1 8 -20 11 -68 10 -183 -5
-297 -36 -395 -110 -108 -81 -211 -198 -336 -383 -42 -62 -83 -114 -91 -115
-9 -2 -55 -5 -104 -8 -48 -4 -114 -8 -146 -11 -262 -23 -452 -29 -843 -28
-550 0 -617 5 -811 51 -102 25 -302 88 -342 109 l-29 14 4 -58 c6 -77 30 -156
74 -246 72 -149 171 -245 329 -322 196 -95 322 -108 1058 -109 262 0 477 -2
477 -4 0 -1 -13 -31 -29 -65 -16 -34 -43 -93 -61 -132 -18 -38 -42 -92 -55
-120 -49 -106 -218 -482 -335 -745 -67 -151 -130 -293 -140 -315 -175 -388
-619 -1454 -805 -1930 -143 -365 -324 -905 -359 -1067 -3 -13 -10 -41 -15 -63
-6 -22 -12 -56 -16 -75 -3 -19 -8 -48 -11 -63 -17 -82 -10 -200 20 -354 45
-225 153 -494 266 -663 84 -125 262 -285 387 -349 41 -20 148 -63 168 -67 6
-1 35 -9 65 -18 30 -10 93 -20 140 -23 141 -8 234 24 1095 387 264 111 581
242 705 292 124 49 234 94 245 98 157 71 838 309 1028 359 40 11 116 31 170
46 54 14 108 28 120 31 12 2 45 8 72 14 83 17 97 20 190 35 177 29 220 32 384
31 91 -1 174 2 184 6 48 24 -6 144 -119 267 -108 116 -226 196 -344 235 -53
17 -99 18 -245 1 -16 -2 -57 -6 -90 -10 -71 -7 -91 -10 -210 -30 -27 -5 -316
-69 -355 -79 -113 -29 -174 -47 -338 -97 -107 -33 -203 -64 -215 -69 -12 -5
-80 -30 -152 -56 -128 -46 -361 -136 -400 -154 -11 -5 -108 -47 -216 -94 -108
-46 -217 -94 -243 -105 -25 -12 -67 -31 -93 -42 -42 -19 -315 -145 -553 -256
-86 -41 -163 -76 -170 -78 -5 -2 -42 -18 -140 -63 -237 -107 -464 -190 -613
-223 -180 -40 -278 -12 -321 93 -18 41 -16 210 2 288 6 25 13 59 16 75 3 17 8
41 11 55 21 111 139 467 253 765 58 153 241 591 294 705 11 25 29 63 38 85 10
22 29 65 43 95 14 30 48 105 76 167 28 62 71 154 95 205 24 51 66 141 94 199
33 72 59 113 79 127 48 34 240 126 333 160 162 59 486 153 624 182 23 4 74 15
113 24 40 9 85 18 100 21 16 3 37 7 48 9 11 2 40 7 65 11 48 8 70 12 110 20
14 2 45 7 70 10 25 4 56 8 70 10 34 5 110 16 140 20 14 2 54 7 90 10 36 3 72
7 80 10 8 2 47 6 85 10 39 3 77 8 85 10 8 2 49 6 90 10 41 3 95 7 120 10 25 2
92 7 150 10 58 4 112 8 120 10 8 2 71 6 140 10 69 4 141 8 160 10 19 2 80 6
135 10 55 4 102 8 103 10 17 16 -70 158 -144 237 -127 136 -310 210 -508 203
-90 -3 -217 -13 -266 -21 -14 -2 -45 -6 -70 -9 -25 -3 -61 -8 -80 -11 -19 -3
-53 -7 -75 -9 -22 -3 -51 -7 -65 -10 -14 -3 -38 -7 -55 -9 -16 -3 -86 -14
-155 -25 -69 -11 -143 -22 -165 -26 -22 -3 -47 -7 -55 -10 -8 -2 -33 -6 -55
-10 -22 -3 -47 -7 -55 -10 -8 -2 -33 -6 -55 -10 -22 -3 -130 -23 -240 -45
-110 -21 -218 -42 -240 -46 -48 -8 -39 -6 -195 -39 -69 -15 -136 -28 -150 -31
-14 -2 -47 -9 -75 -15 -27 -6 -60 -13 -72 -15 l-23 -4 21 52 c11 29 108 269
216 533 283 696 343 843 449 1105 208 512 193 480 223 481 14 1 37 2 51 4 14
1 72 5 130 9 58 4 121 9 140 11 19 2 89 6 155 10 66 4 131 8 145 10 14 1 66 6
115 9 50 4 110 9 135 11 25 2 79 7 120 10 41 3 91 8 110 10 19 2 69 7 110 10
41 4 91 8 110 10 19 2 69 7 110 10 41 3 86 8 100 10 14 2 59 7 100 11 41 3 89
8 105 9 17 2 68 6 115 10 47 3 92 8 100 10 8 2 47 7 85 10 39 4 84 9 100 10
294 31 968 22 1148 -15 26 -6 55 -10 63 -10 8 0 34 40 61 95 26 52 51 95 55
95 10 0 71 -107 87 -150 6 -19 14 -52 17 -72 l6 -36 -91 29 c-50 16 -100 29
-111 29 -16 0 -40 -41 -120 -205 -55 -113 -100 -207 -100 -209 0 -2 -22 -50
-49 -107 -124 -264 -348 -794 -407 -964 -14 -38 -29 -78 -34 -87 -6 -10 -10
-22 -10 -27 0 -5 -5 -22 -11 -38 -19 -48 -114 -331 -153 -458 -21 -66 -41
-131 -46 -145 -11 -32 -91 -327 -96 -354 -8 -44 -12 -63 -27 -121 -35 -134
-90 -427 -103 -547 -2 -21 -6 -50 -10 -65 -3 -16 -8 -112 -10 -215 -4 -171 -3
-191 16 -250 43 -128 146 -224 277 -258 134 -35 233 -12 388 88 178 116 339
297 496 560 31 51 59 90 61 85 2 -4 5 -26 7 -48 4 -65 40 -231 62 -288 99
-252 313 -410 554 -408 71 0 82 1 170 22 423 100 1001 710 1074 1134 7 39 14
78 16 88 5 26 -9 21 -27 -10 -9 -16 -25 -37 -35 -48 -10 -11 -31 -36 -46 -55
-93 -114 -346 -356 -509 -487 -219 -176 -323 -242 -449 -288 -157 -56 -238
-33 -271 79 -14 46 -17 271 -5 356 10 69 32 156 53 206 15 35 17 36 27 19 24
-44 82 -72 164 -78 77 -6 132 12 235 77 246 154 542 423 747 681 90 113 201
274 201 292 0 5 11 24 23 43 56 83 99 235 103 358 4 148 -31 239 -126 331
-154 149 -353 239 -531 239 -134 0 -246 -42 -424 -161 -160 -106 -299 -232
-385 -347 -72 -98 -199 -301 -265 -425 -32 -60 -62 -117 -66 -125 -56 -104
-159 -370 -213 -552 -30 -98 -109 -226 -281 -453 -130 -172 -189 -241 -306
-357 -107 -105 -164 -149 -220 -167 -62 -20 -83 3 -81 84 2 40 11 125 17 154
29 135 43 193 82 346 59 233 151 549 265 905 99 313 85 286 213 399 384 335
692 669 1011 1096 310 413 480 678 650 1010 151 295 217 488 218 630 0 95 -20
132 -124 235 -68 68 -103 94 -170 127 -95 46 -197 68 -265 56z m256 -319 c6
-62 -8 -125 -53 -248 -63 -172 -188 -403 -362 -671 -51 -77 -107 -167 -126
-200 -151 -264 -399 -575 -702 -880 l-129 -130 54 115 c238 508 362 751 528
1038 11 17 28 47 38 66 47 82 185 293 279 426 170 239 360 461 426 497 23 13
45 7 47 -13z m406 -2456 c-11 -103 -60 -255 -122 -380 -63 -128 -328 -461
-509 -642 -106 -106 -240 -212 -316 -251 -54 -27 -119 -49 -126 -42 -18 18
156 427 252 593 150 260 391 535 574 651 84 55 214 120 244 122 4 1 6 -23 3
-51z"/>
<path d="M10540 22615 c39 -106 65 -210 100 -400 28 -154 32 -188 46 -370 13
-174 6 -605 -11 -690 -2 -11 -7 -47 -10 -80 -10 -99 -15 -137 -25 -195 -5 -30
-12 -73 -15 -95 -4 -22 -10 -56 -15 -75 -5 -19 -12 -51 -15 -70 -8 -51 -73
-314 -97 -390 -43 -141 -111 -346 -118 -355 -4 -5 -10 -22 -14 -38 -15 -64
-163 -364 -251 -510 -112 -187 -254 -368 -372 -477 -129 -118 -308 -220 -410
-234 -48 -6 -46 -11 -44 94 1 91 35 265 88 450 14 47 26 90 27 95 2 6 5 17 8
25 3 8 14 38 23 65 21 59 37 99 75 180 16 33 66 152 113 265 47 113 96 230
110 260 14 30 55 120 90 200 36 80 102 221 146 313 45 92 81 171 81 175 0 4
-24 32 -52 62 -140 146 -280 202 -411 163 -71 -21 -100 -44 -161 -127 -238
-324 -474 -858 -561 -1272 -61 -291 -80 -471 -63 -597 12 -93 18 -130 23 -147
2 -8 6 -26 9 -40 7 -40 36 -121 63 -175 33 -65 189 -217 280 -271 122 -73 226
-91 309 -55 108 48 336 231 524 420 371 374 667 829 895 1376 178 427 322 960
389 1435 2 19 8 58 12 85 9 62 9 222 -1 301 -36 315 -180 547 -413 667 -124
64 -260 107 -340 107 l-40 0 28 -75z"/>
<path d="M16411 21814 c-155 -41 -211 -94 -323 -301 -62 -114 -168 -357 -160
-365 11 -10 191 -57 277 -72 79 -14 162 -14 205 -2 18 6 46 42 102 134 42 70
111 177 154 237 154 219 204 294 204 304 0 19 -75 48 -175 67 -70 13 -231 12
-284 -2z"/>
<path d="M22544 21715 c-165 -30 -363 -102 -619 -224 -381 -183 -632 -394
-730 -615 -41 -93 -53 -157 -50 -268 4 -127 8 -149 51 -266 61 -162 144 -296
323 -522 63 -80 117 -147 121 -150 4 -4 102 -121 229 -275 28 -34 108 -158
130 -202 l21 -42 -33 -24 c-17 -13 -77 -57 -132 -97 -94 -69 -340 -259 -395
-306 -14 -12 -70 -59 -125 -104 -265 -220 -394 -340 -701 -645 -395 -394 -654
-701 -877 -1041 -330 -503 -494 -951 -408 -1113 25 -49 137 -162 203 -207 24
-16 45 -32 48 -35 3 -4 46 -27 95 -52 167 -84 318 -120 415 -98 25 5 61 13 80
16 168 28 465 135 685 247 322 163 701 440 950 694 101 103 191 200 235 254
25 30 47 57 51 60 3 3 42 53 86 111 232 306 389 589 507 914 6 15 21 -22 58
-135 54 -170 338 -1014 386 -1151 l31 -85 -75 -220 c-64 -188 -110 -347 -129
-451 -21 -116 -26 -131 -45 -126 -27 7 -39 -16 -134 -252 -155 -388 -438
-1036 -607 -1392 -65 -139 -111 -194 -222 -271 -112 -78 -213 -125 -317 -148
-19 -4 -37 -8 -40 -9 -3 -1 -30 -5 -60 -9 -319 -47 -576 -279 -655 -589 -68
-271 6 -545 202 -745 82 -84 116 -145 136 -246 17 -81 6 -144 -35 -214 -45
-76 -192 -221 -269 -266 -35 -21 -71 -41 -79 -46 -8 -5 -29 -16 -46 -25 -17
-9 -54 -38 -83 -64 -46 -43 -51 -51 -42 -70 34 -63 265 -45 400 32 85 48 174
134 291 282 201 252 301 329 538 418 136 51 225 108 318 204 130 134 207 304
219 488 3 38 7 144 10 235 6 161 8 186 20 320 12 127 39 285 72 420 31 129
169 538 256 760 14 36 46 121 72 190 52 137 160 413 175 445 41 88 62 147 67
187 l6 48 81 44 c91 50 76 27 177 269 29 67 52 123 54 124 1 2 18 -36 37 -85
20 -48 55 -128 78 -177 l43 -91 76 -40 75 -39 3 -50 c1 -27 17 -85 34 -129 17
-45 32 -88 34 -96 2 -8 22 -64 43 -125 88 -242 115 -320 196 -570 244 -747
266 -871 271 -1510 1 -154 4 -287 7 -295 3 -8 8 -28 12 -45 40 -160 152 -328
289 -430 366 -275 878 -186 1134 199 203 304 162 723 -96 984 -101 102 -252
188 -372 212 -30 6 -70 17 -89 24 -19 8 -62 21 -95 31 -121 35 -263 123 -363
224 -63 64 -95 119 -152 261 -10 25 -29 70 -42 100 -14 30 -40 93 -58 140 -18
47 -38 99 -45 115 -7 17 -30 73 -50 125 -20 52 -41 104 -46 115 -12 29 -92
237 -144 377 -26 68 -50 132 -56 143 -11 24 -67 180 -121 335 -47 136 -62 164
-89 157 -19 -5 -32 24 -46 103 -2 14 -11 54 -19 90 -9 36 -18 78 -21 94 -4 23
-69 216 -163 483 l-18 51 79 239 c122 365 313 970 404 1278 13 44 46 154 74
245 27 91 54 181 59 200 6 19 40 136 77 260 37 124 73 250 82 280 8 30 28 100
44 155 33 111 40 132 103 355 227 794 346 1236 346 1281 0 44 -26 75 -74 87
-48 13 -83 2 -123 -37 -40 -38 -45 -51 -183 -441 -28 -80 -58 -161 -65 -180
-8 -19 -43 -116 -79 -215 -35 -99 -157 -436 -271 -750 -114 -313 -211 -581
-215 -595 -5 -14 -22 -63 -39 -110 -18 -47 -45 -121 -61 -165 -15 -44 -47
-132 -70 -195 -23 -63 -64 -178 -90 -255 -27 -77 -65 -185 -85 -240 -53 -146
-124 -351 -147 -424 l-20 -65 -28 75 c-15 41 -65 175 -110 299 -101 279 -138
379 -150 405 -5 11 -45 119 -90 240 -45 121 -92 247 -105 280 -13 33 -39 105
-59 160 -20 55 -41 109 -46 120 -5 11 -50 130 -100 264 -105 282 -110 241 38
352 245 185 558 362 927 524 62 28 262 104 318 121 31 10 57 21 57 24 0 16
-44 61 -72 76 -65 34 -121 43 -223 39 -55 -2 -111 -6 -125 -9 -14 -3 -50 -11
-80 -17 -87 -18 -246 -76 -365 -134 -139 -68 -249 -127 -253 -137 -2 -5 -8 -8
-14 -8 -12 0 -51 -25 -260 -162 -82 -54 -152 -98 -156 -98 -4 0 -31 64 -60
143 -30 78 -73 194 -97 257 -24 63 -89 237 -145 385 -55 149 -107 285 -115
303 -8 18 -15 39 -15 46 0 8 -18 32 -39 54 -52 53 -94 62 -155 32 -48 -23 -61
-49 -51 -104 9 -45 187 -668 241 -839 13 -43 24 -83 24 -88 0 -18 -232 171
-347 282 -152 147 -241 299 -248 422 -8 165 156 342 433 468 175 79 494 186
670 224 9 2 89 20 177 40 223 51 282 50 307 -5 16 -37 26 -38 39 -3 33 87 31
234 -4 345 -41 131 -148 238 -262 262 -16 3 -41 9 -55 12 -52 12 -218 11 -286
-1z m-404 -2938 c19 -115 18 -237 -4 -392 -44 -304 -213 -688 -464 -1055 -72
-105 -203 -282 -222 -300 -3 -3 -30 -34 -60 -70 -116 -137 -301 -312 -520
-491 -263 -215 -440 -335 -657 -445 -310 -156 -428 -148 -418 32 8 158 139
409 424 809 47 66 87 122 91 125 3 3 25 32 49 65 25 33 47 62 50 65 4 3 18 21
33 42 15 20 33 42 40 50 8 7 29 33 48 58 19 25 37 47 40 50 3 3 51 59 106 125
54 66 103 125 109 131 63 70 90 100 150 169 276 313 717 746 957 939 69 56
221 166 229 166 3 0 12 -33 19 -73z m1367 -2263 c100 -63 62 -216 -60 -238
-35 -6 -99 28 -121 65 -69 117 66 246 181 173z m-1695 -3223 c222 -57 394
-233 450 -459 19 -79 18 -205 -3 -290 -67 -265 -307 -459 -579 -467 -278 -8
-515 157 -607 422 -23 67 -27 94 -27 193 -1 95 3 128 23 188 102 313 428 494
743 413z m3403 -56 c144 -24 299 -118 386 -235 85 -113 123 -233 123 -380 -1
-165 -53 -295 -166 -416 -147 -157 -346 -225 -553 -188 -83 15 -124 29 -185
62 -162 89 -267 224 -315 407 -13 50 -14 234 -1 285 11 48 62 168 76 180 4 3
16 22 29 42 27 45 128 135 191 169 127 71 276 98 415 74z"/>
<path d="M17678 21235 c-2 -2 -28 -5 -59 -8 -200 -19 -436 -163 -614 -373
-170 -199 -355 -553 -425 -815 -7 -24 -16 -39 -23 -36 -19 7 -73 -19 -109 -52
-65 -59 -126 -195 -154 -341 -2 -14 -9 -36 -13 -50 -5 -14 -17 -70 -26 -125
-9 -55 -19 -111 -21 -125 -2 -14 -7 -81 -10 -150 l-6 -125 -53 -65 c-161 -197
-344 -345 -489 -394 -80 -27 -103 -28 -125 -5 -25 27 -30 57 -26 159 7 171 34
298 127 605 159 529 473 1182 700 1457 l39 47 -32 16 c-156 81 -340 107 -454
64 -161 -60 -353 -358 -536 -831 -99 -256 -171 -496 -215 -717 -22 -112 -24
-129 -40 -256 -5 -41 -5 -248 0 -315 19 -250 112 -417 276 -494 124 -58 265
-36 425 69 107 69 320 300 396 429 12 20 24 36 28 36 3 0 12 -26 20 -57 70
-301 321 -494 646 -495 277 -1 528 114 765 352 151 150 258 301 372 525 55
109 131 284 149 343 11 39 19 46 72 73 66 33 185 113 290 196 37 30 67 50 67
45 0 -5 -22 -67 -49 -138 -167 -445 -287 -884 -297 -1085 -3 -72 0 -91 17
-125 43 -81 122 -137 240 -170 72 -21 263 -28 277 -11 5 6 33 57 62 112 95
181 143 270 150 280 4 6 19 30 32 55 135 243 368 609 524 822 84 115 316 414
333 428 3 3 40 45 81 95 41 49 82 97 90 106 8 8 51 56 94 105 44 49 138 148
209 219 l128 130 -67 -135 c-84 -169 -143 -294 -231 -490 -86 -189 -236 -565
-301 -755 -104 -303 -154 -586 -129 -725 8 -43 33 -94 58 -117 60 -55 294
-129 444 -140 56 -4 78 -2 105 12 71 36 174 127 304 271 375 413 516 647 567
941 12 68 21 350 11 367 -4 7 -62 -100 -126 -231 -6 -13 -14 -23 -18 -23 -5 0
-8 -5 -8 -10 0 -19 -167 -264 -256 -375 -140 -176 -289 -329 -389 -399 -54
-38 -115 -71 -115 -62 0 3 56 191 85 285 24 77 140 383 233 616 68 170 323
779 352 840 28 59 60 151 60 171 0 91 -322 269 -465 257 -108 -8 -325 -186
-690 -565 -312 -324 -544 -605 -762 -926 -46 -67 -83 -120 -83 -118 0 8 102
303 115 331 7 17 25 62 40 100 29 73 184 438 236 553 116 256 166 362 260 550
l107 212 -36 30 c-98 81 -289 84 -457 6 -119 -55 -242 -227 -431 -603 -55
-112 -103 -200 -106 -198 -3 3 -23 -17 -44 -45 -37 -48 -125 -123 -239 -201
-67 -46 -219 -138 -223 -134 -1 1 9 46 23 100 14 54 27 110 30 124 2 14 9 51
15 81 15 78 26 157 36 249 24 246 -1 437 -69 509 -69 75 -283 179 -427 209
-14 3 -29 6 -35 7 -45 11 -201 26 -207 21z m330 -321 c11 -23 10 -359 -2 -449
-2 -16 -6 -57 -10 -90 -4 -33 -9 -80 -13 -105 -3 -25 -7 -56 -8 -70 -13 -129
-83 -429 -106 -455 -5 -5 -9 -16 -9 -25 0 -25 -55 -107 -85 -126 -49 -32 -185
-62 -271 -60 -102 3 -157 19 -202 61 l-37 33 1 104 c2 90 11 148 49 308 8 37
67 184 94 239 48 94 116 206 183 300 65 92 289 321 314 321 8 0 14 4 14 8 0
11 39 30 61 31 9 1 21 -11 27 -25z m-995 -1519 c28 -36 97 -76 152 -90 31 -7
38 -9 115 -23 46 -9 150 -7 207 3 18 3 36 6 40 7 5 0 36 11 71 24 34 13 67 24
72 24 28 0 -133 -323 -246 -492 -46 -70 -114 -157 -151 -195 -112 -112 -235
-182 -316 -177 -18 1 -42 2 -53 3 -31 1 -72 47 -85 95 -24 86 -8 267 41 471
24 99 113 385 120 385 3 0 18 -16 33 -35z"/>
<path d="M6570 15976 c0 -626 1 -666 18 -667 150 -6 540 1 587 11 72 15 148
50 198 91 145 119 166 339 47 489 -38 48 -84 77 -158 101 -32 10 -50 18 -41
18 25 1 106 49 141 84 121 122 95 360 -52 462 -93 65 -114 68 -442 73 l-298 4
0 -666z m525 499 c85 -13 146 -83 151 -175 5 -106 -53 -180 -161 -206 -25 -7
-306 -12 -321 -7 -8 3 -11 66 -11 198 0 190 0 194 21 197 34 5 278 0 321 -7z
m70 -574 c90 -40 133 -98 139 -191 9 -124 -69 -216 -199 -236 -54 -8 -310 -13
-336 -6 -15 3 -17 28 -16 232 l0 229 181 -3 c163 -2 186 -4 231 -25z"/>
<path d="M7799 16608 c-3 -207 1 -1291 5 -1296 11 -10 878 -4 885 6 5 8 7 131
2 152 -1 3 -160 5 -353 5 l-353 0 -3 213 c-2 166 0 212 10 213 7 0 149 1 316
1 l302 0 1 39 c0 22 1 57 1 79 1 22 -2 43 -5 47 -4 3 -146 6 -317 5 l-310 0 0
199 0 199 340 0 340 0 0 85 0 85 -430 0 -430 0 -1 -32z"/>
<path d="M9375 16564 c-19 -42 -35 -78 -35 -79 0 -2 -16 -37 -35 -78 -19 -41
-35 -77 -35 -80 0 -2 -10 -26 -22 -53 -117 -259 -424 -960 -422 -963 4 -5 205
-4 208 1 1 2 24 59 51 128 27 69 56 141 66 160 l17 35 311 0 c190 0 314 -4
319 -10 5 -6 21 -41 37 -80 78 -193 98 -235 114 -236 53 -2 183 0 187 3 3 4
-42 113 -121 293 -15 35 -24 58 -98 230 -31 72 -83 193 -116 270 -33 77 -98
228 -144 335 l-83 195 -82 3 -82 3 -35 -77z m156 -271 c10 -24 19 -45 19 -48
0 -4 8 -25 18 -48 10 -23 27 -62 36 -87 10 -25 22 -54 27 -65 28 -67 99 -245
99 -247 0 -6 -489 -3 -494 3 -4 4 50 145 94 244 7 16 121 288 148 354 3 8 11
-1 20 -25 8 -22 23 -58 33 -81z"/>
<path d="M10332 16158 c4 -455 5 -486 24 -539 64 -177 209 -305 384 -337 124
-24 286 4 382 64 106 67 170 151 214 279 l27 80 1 465 1 465 -91 3 -91 3 1
-427 c1 -471 -3 -520 -55 -611 -56 -98 -145 -152 -259 -158 -137 -8 -239 46
-305 160 -48 81 -53 131 -53 581 0 231 -1 427 -1 437 -1 15 -12 17 -92 17
l-90 0 3 -482z"/>
<path d="M11570 16555 l0 -85 216 -2 216 -3 -1 -577 c0 -535 2 -578 17 -579
98 -3 153 -2 158 4 4 3 7 265 7 582 l0 575 214 0 213 0 0 85 0 85 -520 0 -520
0 0 -85z"/>
<path d="M12660 16635 c0 -4 159 -247 436 -665 l62 -95 0 -278 c0 -153 2 -281
6 -284 4 -5 81 -7 154 -4 l22 1 0 283 0 284 119 179 c320 483 381 576 381 580
0 2 -49 4 -109 4 l-110 0 -43 -70 c-108 -175 -323 -509 -328 -509 -3 0 -86
130 -185 289 l-179 290 -113 0 c-62 0 -113 -2 -113 -5z"/>
<path d="M14600 15973 l0 -668 267 2 c292 1 356 9 448 51 129 61 204 170 210
303 6 154 -73 280 -209 331 -28 11 -52 19 -53 19 -2 -1 -9 -1 -15 -1 -7 0 14
13 47 28 66 32 128 93 152 151 23 54 25 166 4 228 -36 105 -141 189 -267 212
-27 6 -170 10 -317 11 l-267 1 0 -668z m564 492 c54 -26 94 -72 104 -122 19
-89 -6 -169 -66 -211 -50 -36 -101 -44 -261 -46 l-156 -1 -2 197 -2 197 27 3
c15 2 93 2 174 1 114 -1 155 -5 182 -18z m31 -564 c61 -27 91 -54 118 -106 26
-51 27 -146 2 -195 -55 -110 -130 -136 -375 -135 l-155 0 -2 225 c-1 124 1
228 3 232 3 4 85 6 182 5 158 -3 182 -6 227 -26z"/>
<path d="M16161 16448 c-47 -106 -97 -220 -112 -253 -15 -33 -84 -190 -154
-350 -70 -159 -137 -312 -150 -340 -12 -27 -33 -75 -45 -105 -13 -30 -28 -61
-33 -68 -5 -7 -8 -15 -5 -18 10 -9 198 -8 207 2 4 5 36 79 70 164 l62 155 318
0 318 0 64 -158 c35 -87 68 -162 74 -165 10 -6 194 -6 200 0 1 2 -109 264
-247 583 -137 319 -254 591 -259 605 -6 14 -20 50 -33 80 l-22 55 -85 3 -84 3
-84 -193z m219 -186 c30 -75 60 -148 67 -162 7 -14 13 -28 13 -33 0 -4 9 -26
19 -50 40 -85 89 -217 83 -218 -24 -5 -492 -3 -492 1 0 4 30 78 66 166 36 87
91 221 122 297 30 75 58 137 61 137 3 0 31 -62 61 -138z"/>
<path d="M17194 15974 l1 -666 65 0 c36 0 76 1 90 1 l25 1 0 283 c-1 155 0
287 2 292 5 16 187 12 207 -4 9 -8 16 -17 16 -21 0 -6 306 -539 315 -548 6 -6
214 -6 217 0 2 2 -64 113 -147 246 -214 345 -215 346 -215 355 0 4 9 7 20 7
40 0 129 42 175 82 90 80 130 175 122 291 -6 73 -8 86 -21 122 -42 112 -148
193 -283 215 -32 6 -177 10 -324 10 l-265 0 0 -666z m553 491 c105 -31 157
-109 148 -222 -7 -94 -53 -147 -151 -175 -53 -16 -363 -24 -365 -10 -1 4 -2
100 -3 214 l-1 207 25 3 c75 9 295 -2 347 -17z"/>
</g>
</svg>
